<svg width="102" height="23" viewBox="0 0 102 23" fill="none" xmlns="http://www.w3.org/2000/svg">
<g id="Arrows">
<path id="Arrow 1" d="M100.977 12.6446C101.563 12.0589 101.563 11.1091 100.977 10.5233L91.4311 0.977383C90.8453 0.391596 89.8956 0.391596 89.3098 0.977383C88.724 1.56317 88.724 2.51292 89.3098 3.0987L97.7951 11.584L89.3098 20.0693C88.724 20.6551 88.724 21.6048 89.3098 22.1906C89.8956 22.7764 90.8453 22.7764 91.4311 22.1906L100.977 12.6446ZM72.241 13.084H99.9164V10.084H72.241V13.084Z" fill="black" fill-opacity="0.5"/>
<path id="Arrow 2" d="M1.06922 10.5233C0.483437 11.1091 0.483437 12.0589 1.06922 12.6446L10.6152 22.1906C11.201 22.7764 12.1507 22.7764 12.7365 22.1906C13.3223 21.6048 13.3223 20.6551 12.7365 20.0693L4.2512 11.584L12.7365 3.0987C13.3223 2.51292 13.3223 1.56317 12.7365 0.977383C12.1507 0.391596 11.201 0.391596 10.6152 0.977383L1.06922 10.5233ZM29.8054 10.084L2.12988 10.084V13.084L29.8054 13.084V10.084Z" fill="black" fill-opacity="0.5"/>
</g>
</svg>
